<?xml version="1.0" encoding="UTF-8" standalone="no"?>
<!-- Created with Inkscape (http://www.inkscape.org/) -->

<svg
   xmlns:dc="http://purl.org/dc/elements/1.1/"
   xmlns:cc="http://creativecommons.org/ns#"
   xmlns:rdf="http://www.w3.org/1999/02/22-rdf-syntax-ns#"
   xmlns:svg="http://www.w3.org/2000/svg"
   xmlns="http://www.w3.org/2000/svg"
   xmlns:sodipodi="http://sodipodi.sourceforge.net/DTD/sodipodi-0.dtd"
   xmlns:inkscape="http://www.inkscape.org/namespaces/inkscape"
   version="1.1"
   width="400"
   height="400"
   id="svg2649"
   inkscape:version="0.48.4 r9939"
   sodipodi:docname="cern-white.svg">
  <metadata
     id="metadata14">
    <rdf:RDF>
      <cc:Work
         rdf:about="">
        <dc:format>image/svg+xml</dc:format>
        <dc:type
           rdf:resource="http://purl.org/dc/dcmitype/StillImage" />
        <dc:title>generated by pstoedit version:3.45 from L:/svg/cern.eps</dc:title>
      </cc:Work>
    </rdf:RDF>
  </metadata>
  <sodipodi:namedview
     pagecolor="#ffffff"
     bordercolor="#666666"
     borderopacity="1"
     objecttolerance="10"
     gridtolerance="10"
     guidetolerance="10"
     inkscape:pageopacity="0"
     inkscape:pageshadow="2"
     inkscape:window-width="1920"
     inkscape:window-height="1141"
     id="namedview12"
     showgrid="false"
     inkscape:zoom="1.668772"
     inkscape:cx="194.10314"
     inkscape:cy="158.28216"
     inkscape:window-x="0"
     inkscape:window-y="406"
     inkscape:window-maximized="1"
     inkscape:current-layer="svg2649" />
  <defs
     id="defs2696">
    <filter
       id="filter2997"
       inkscape:label="Invert"
       x="0"
       y="0"
       width="1"
       height="1"
       inkscape:menu="Color"
       inkscape:menu-tooltip="Invert colors"
       color-interpolation-filters="sRGB">
      <feColorMatrix
         id="feColorMatrix2999"
         type="saturate"
         values="1"
         result="fbSourceGraphic" />
      <feColorMatrix
         id="feColorMatrix3001"
         in="fbSourceGraphic"
         values="-1 0 0 0 1 0 -1 0 0 1 0 0 -1 0 1 0 0 0 1 0 "
         result="fbSourceGraphic" />
      <feColorMatrix
         result="fbSourceGraphicAlpha"
         in="fbSourceGraphic"
         values="0 0 0 -1 0 0 0 0 -1 0 0 0 0 -1 0 0 0 0 1 0"
         id="feColorMatrix3034" />
      <feColorMatrix
         id="feColorMatrix3036"
         type="saturate"
         values="1"
         result="fbSourceGraphic"
         in="fbSourceGraphic" />
      <feColorMatrix
         id="feColorMatrix3038"
         in="fbSourceGraphic"
         values="-1 0 0 0 1 0 -1 0 0 1 0 0 -1 0 1 0 0 0 1 0 " />
    </filter>
    <filter
       id="filter3003"
       inkscape:label="Invert"
       x="0"
       y="0"
       width="1"
       height="1"
       inkscape:menu="Color"
       inkscape:menu-tooltip="Invert colors"
       color-interpolation-filters="sRGB">
      <feColorMatrix
         id="feColorMatrix3005"
         type="saturate"
         values="1"
         result="fbSourceGraphic" />
      <feColorMatrix
         id="feColorMatrix3007"
         in="fbSourceGraphic"
         values="-1 0 0 0 1 0 -1 0 0 1 0 0 -1 0 1 0 0 0 1 0 "
         result="fbSourceGraphic" />
      <feColorMatrix
         result="fbSourceGraphicAlpha"
         in="fbSourceGraphic"
         values="0 0 0 -1 0 0 0 0 -1 0 0 0 0 -1 0 0 0 0 1 0"
         id="feColorMatrix3040" />
      <feColorMatrix
         id="feColorMatrix3042"
         type="saturate"
         values="1"
         result="fbSourceGraphic"
         in="fbSourceGraphic" />
      <feColorMatrix
         id="feColorMatrix3044"
         in="fbSourceGraphic"
         values="-1 0 0 0 1 0 -1 0 0 1 0 0 -1 0 1 0 0 0 1 0 " />
    </filter>
  </defs>
  <title
     id="title2651">generated by pstoedit version:3.45 from L:/svg/cern.eps</title>
  <path
     inkscape:connector-curvature="0"
     style="fill:#d3d7cf;fill-opacity:1;fill-rule:nonzero;stroke-width:0;stroke-linecap:butt;stroke-linejoin:miter;stroke-miterlimit:2.61310004999999990;filter:url(#filter2997)"
     id="path2797"
     d="M 151.22294,16.583514 C 73.260156,16.58357 9.999994,79.843618 9.999994,157.80646 c 2.8e-5,11.52758 1.379803,23.04937 4.167718,34.22693 3.1e-5,-6e-5 30.206737,120.82695 30.206737,120.82695 2.4e-5,0 19.658353,-10.65904 19.658353,-10.65904 2e-6,0 -10.585267,-42.45171 -10.585267,-42.45171 26.304537,25.22228 61.335755,39.27982 97.775405,39.27982 11.42486,8e-5 22.77221,-1.34996 33.8581,-4.09395 0,2e-5 -84.52011,87.66268 -85.309132,88.48103 11.455552,0 16.347042,0 29.579732,0 0.79337,-0.8189 123.33496,-127.31826 123.33496,-127.31826 13.44557,-13.87951 23.91354,-30.40973 30.72309,-48.50044 -4e-5,-7e-5 36.31005,175.01511 36.47675,175.8187 6.53418,0 17.55194,0 22.31389,0 -0.16663,-0.80478 -52.66815,-254.30458 -52.66815,-254.30458 -7.69676,-37.220238 -30.04567,-69.6962 -62.0363,-90.214506 -3e-5,-8.6e-5 161.98939,0 162.50413,0 0,-4.329397 0,-20.148373 0,-22.31389 -0.51525,5.5e-5 -238.77707,0 -238.77707,0 z m 0.11065,22.498302 c 65.92563,-2.3e-5 119.38853,53.505312 119.38853,119.425414 -3e-5,65.92011 -53.46292,119.4623 -119.38853,119.4623 C 85.418906,277.96946 31.834412,224.42733 31.834412,158.50723 31.834441,92.587152 85.418894,39.081816 151.33359,39.081816 z m 52.63127,18.441232 c -0.75817,-0.0061 -1.49392,0.01265 -2.24983,0.03688 -46.86656,1.502445 -90.09319,26.207321 -115.183926,66.056492 2.3e-5,-8e-5 18.367466,0 18.367466,0 23.84488,-32.05714 61.41593,-50.934682 101.35301,-50.934682 9.40403,-5.9e-5 18.75666,0.983646 27.92002,3.061244 -7.00827,-7.033621 -14.90961,-13.066512 -23.45725,-18.109289 -1.50858,-0.05597 -2.9654,-0.07377 -4.46277,-0.07377 -0.7595,0 -1.52854,-0.03082 -2.28672,-0.03688 z m 153.9474,9.220615 c 0,-3e-5 -16.1914,91.505387 -16.1914,91.505387 -11.78587,-39.25587 -40.02061,-71.463091 -77.3794,-88.296613 6.58281,8.422444 12.22223,17.661554 16.78152,27.329905 32.35172,23.799898 51.41415,61.473848 51.41415,101.648068 -4e-5,20.36423 -4.92362,40.50943 -14.34728,58.56935 -3e-5,-10e-6 4.46278,21.76065 4.46278,21.76065 11.5228,-16.71317 19.29812,-35.67213 22.83024,-55.65563 0,1e-5 27.80938,-156.861117 27.80938,-156.861117 0,-3e-6 -15.37999,0 -15.37999,0 z M 64.917981,193.43492 c -0.07671,1.85922 -0.184413,3.63629 -0.184413,5.49549 2.5e-5,15.55386 2.568569,31.06 7.597788,45.77113 7.324857,6.70598 15.452677,12.4398 24.231777,17.07658 -10.954622,-19.11838 -16.707755,-40.82022 -16.707755,-62.84771 -2.4e-5,-1.85927 0.0971,-3.63629 0.184412,-5.49549 -2.3e-5,4e-5 -15.121809,0 -15.121809,0 z m 232.728339,92.7594 c -23.84323,24.9899 -56.85718,39.09541 -91.39474,39.09541 -5.68446,10e-6 -11.4093,-0.37897 -17.0397,-1.14336 -5e-5,-7e-5 -12.6138,13.13016 -12.6138,13.13016 9.75224,2.08888 19.6835,3.17189 29.6535,3.17189 35.13928,9e-5 68.94042,-13.04888 94.97234,-36.66117 -4e-5,1e-5 -3.5776,-17.59293 -3.5776,-17.59293 z M 99.882555,292.3168 c 13.687925,15.58476 30.668225,27.97918 49.680675,36.29235 0,2e-5 11.28604,-11.72863 11.28604,-11.72863 -10.71447,-4.12158 -20.76889,-9.67738 -29.98545,-16.52334 -10.57229,-1.52048 -20.99953,-4.22399 -30.981265,-8.04038 z" />
  <g
     style="fill:#d3d7cf;fill-opacity:1;filter:url(#filter3003)"
     id="g3725"
     transform="matrix(2.7988304,0,0,2.7999872,-78.22184,-83.809933)">
    <path
       inkscape:connector-curvature="0"
       style="fill:#d3d7cf;fill-opacity:1;fill-rule:nonzero;stroke-width:0;stroke-linecap:butt;stroke-linejoin:miter;stroke-miterlimit:2.61310004999999990"
       id="path2681"
       d="m 64.32703,79.14032 c -0.2773,0 -0.6094,-0.054 -0.8867,0.059 0.0508,1.992 -0.1133,3.988 0.0508,5.984 2.5507,-0.054 5.1015,0.11 7.6523,-0.109 0.0547,0.441 -0.0547,0.832 0.0547,1.273 -2.6055,-0.164 -5.1563,-0.164 -7.7578,-0.054 0.0508,2.324 -0.1133,4.656 0.0508,6.984 2.8281,0 5.6562,0 8.4843,-0.277 -0.1093,0.445 -0.1093,0.941 0,1.387 -3.6015,0 -7.207,0 -10.8086,0 0,-5.434 0,-10.922 0,-16.352 3.5469,0.055 7.0938,-0.113 10.6407,0.055 -0.1094,0.441 -0.0547,0.941 0,1.386 -2.4922,-0.445 -4.9844,-0.336 -7.4805,-0.336 z" />
    <path
       inkscape:connector-curvature="0"
       style="fill:#d3d7cf;fill-opacity:1;fill-rule:nonzero;stroke-width:0;stroke-linecap:butt;stroke-linejoin:miter;stroke-miterlimit:2.61310004999999990"
       id="path2685"
       d="m 82.89343,84.90632 c 0.7266,-0.383 1.332,-0.941 1.6641,-1.719 0.4453,-1.218 0.2773,-2.66 -0.8321,-3.547 -0.7226,-0.554 -1.6054,-0.718 -2.4414,-0.718 -1.4922,-0.114 -2.9922,-0.168 -4.4843,0.05 0.0546,2.219 -0.1133,4.383 0.0546,6.602 1.9922,-0.059 4.1563,0.332 6.0391,-0.668 z m -5.4297,1.496 c -0.168,0 -0.5,-0.055 -0.5,0.059 -0.164,2.66 -0.0547,5.32 -0.0547,7.98 -0.7773,-0.054 -1.5,-0.054 -2.2734,0 0,-5.488 0,-10.918 0,-16.406 3.0469,0.109 5.9844,-0.223 9.0898,0.223 1.1641,0.164 2.3828,0.55 3.0469,1.605 0.7774,1.219 0.6133,2.719 -0.1641,3.938 -1.164,1.605 -2.9921,2.046 -4.7695,2.492 2.3867,2.773 4.7695,5.488 7.207,8.148 -0.996,-0.054 -2.0507,-0.054 -3.0468,0 -2.2188,-2.773 -4.5469,-5.488 -6.9844,-8.039 -0.5,0 -1.0547,0 -1.5508,0 z" />
    <path
       inkscape:connector-curvature="0"
       style="fill:#d3d7cf;fill-opacity:1;fill-rule:nonzero;stroke-width:0;stroke-linecap:butt;stroke-linejoin:miter;stroke-miterlimit:2.61310004999999990"
       id="path2689"
       d="m 92.81533,82.02332 c -0.1953,-0.195 -0.4414,-0.664 -0.7735,-0.441 0,4.265 0,8.59 0,12.859 -0.5,-0.054 -0.9453,-0.113 -1.4414,0 0,-5.488 0,-10.918 0,-16.406 0.3282,0 0.7188,-0.113 0.8868,0.055 4.5429,4.047 8.3672,8.148 12.7502,12.304 0.054,0 0.273,0.055 0.273,-0.054 0.055,-4.102 0,-8.153 0,-12.25 0.5,0.054 0.946,0.054 1.442,0 0,5.433 0.168,10.918 -0.11,16.351 0,0 -0.496,0.11 -0.613,-0.054 -4.211,-4.215 -8.1993,-8.149 -12.4141,-12.364 z" />
    <path
       inkscape:connector-curvature="0"
       style="fill:#d3d7cf;fill-opacity:1;fill-rule:nonzero;stroke-width:0;stroke-linecap:butt;stroke-linejoin:miter;stroke-miterlimit:2.61310004999999990"
       id="path2693"
       d="m 57.33873,79.86332 c -2.9883,-2.137 -7.2031,-1.773 -9.6406,0.996 -1.7734,2.055 -2.1602,4.77 -1.6094,7.43 0.4453,2.383 1.9961,4.269 4.2149,5.098 2.8281,1.054 5.9843,0.277 8.3125,-1.493 0,0.496 -0.1094,0.996 -0.1094,1.493 -2.1094,1.164 -4.5469,1.441 -6.9297,1.332 -2.8242,-0.168 -5.6523,-1.387 -7.1523,-3.938 -1.4922,-2.66 -1.6602,-5.93 -0.1094,-8.644 2.9375,-5.102 9.8125,-5.325 14.6914,-3.329 -0.2774,0.559 -0.3906,1.223 -0.5547,1.832 -0.4453,-0.113 -0.7227,-0.5 -1.1133,-0.777 z" />
  </g>
</svg>
